<?xml version="1.0" encoding="utf-8"?>
<!-- Generator: Adobe Illustrator 15.0.0, SVG Export Plug-In  -->
<!DOCTYPE svg PUBLIC "-//W3C//DTD SVG 1.1//EN" "http://www.w3.org/Graphics/SVG/1.1/DTD/svg11.dtd" [
	<!ENTITY ns_flows "http://ns.adobe.com/Flows/1.0/">
]>
<svg version="1.1"
	 xmlns="http://www.w3.org/2000/svg" xmlns:xlink="http://www.w3.org/1999/xlink" xmlns:a="http://ns.adobe.com/AdobeSVGViewerExtensions/3.0/"
	 x="0px" y="0px" width="1000px" height="350px" viewBox="0 0 1000 350" enable-background="new 0 0 1000 350" xml:space="preserve"
	>
<defs>
</defs>
<rect fill="#1D9CCB" width="1000" height="350"/>
<text transform="matrix(1 0 0 1 39.6128 86.0942)" display="none"><tspan x="0" y="0" display="inline" fill="#FFFFFF" font-family="'Roboto-Black'" font-size="70">AVATAR PICKER</tspan><tspan x="0" y="84" display="inline" fill="#FFFFFF" font-family="'Roboto-Black'" font-size="70">FOR REDUX FORM</tspan></text>
<text transform="matrix(1 0 0 1 39.6128 235.4863)" display="none"><tspan x="0" y="0" display="inline" fill="#FFFFFF" font-family="'OpenSans-Light'" font-size="35">Redux Form Custom Input </tspan><tspan x="0" y="42" display="inline" fill="#FFFFFF" font-family="'OpenSans-Light'" font-size="35">Component to use like a </tspan><tspan x="0" y="84" display="inline" fill="#FFFFFF" font-family="'OpenSans-Light'" font-size="35">select field for avatars</tspan></text>
<path fill="#FFFFFF" d="M71.639,76.797h-16.44l-2.871,9.297H39.51l18.252-49.766h11.279L87.43,86.094H74.544L71.639,76.797z
	 M58.07,67.535h10.698l-5.366-17.261L58.07,67.535z"/>
<path fill="#FFFFFF" d="M107.733,72.559l9.912-36.23h13.398l-16.748,49.766H101.17L84.559,36.329h13.296L107.733,72.559z"/>
<path fill="#FFFFFF" d="M160.37,76.797h-16.44l-2.871,9.297h-12.817l18.252-49.766h11.279l18.389,49.766h-12.886L160.37,76.797z
	 M146.8,67.535h10.698l-5.366-17.261L146.8,67.535z"/>
<path fill="#FFFFFF" d="M214.75,45.591h-14.937v40.503h-11.997V45.591h-14.663v-9.263h41.597V45.591z"/>
<path fill="#FFFFFF" d="M243.973,76.797h-16.44l-2.871,9.297h-12.817l18.252-49.766h11.279l18.389,49.766h-12.886L243.973,76.797z
	 M230.404,67.535h10.698l-5.366-17.261L230.404,67.535z"/>
<path fill="#FFFFFF" d="M281.878,68.492h-6.494v17.603h-11.997V36.329h19.585c5.901,0,10.516,1.309,13.843,3.926
	c3.327,2.618,4.99,6.317,4.99,11.097c0,3.46-0.701,6.328-2.102,8.604c-1.401,2.276-3.595,4.12-6.58,5.531l10.391,20.094v0.513
	h-12.852L281.878,68.492z M275.384,59.263h7.588c2.278,0,3.993-0.599,5.144-1.799c1.15-1.199,1.726-2.873,1.726-5.02
	c0-2.147-0.581-3.832-1.743-5.054c-1.162-1.222-2.871-1.833-5.127-1.833h-7.588V59.263z"/>
<path fill="#FFFFFF" d="M338.48,69.209v16.885h-11.997V36.329h19.858c3.805,0,7.172,0.701,10.1,2.102
	c2.928,1.401,5.195,3.396,6.802,5.981c1.606,2.586,2.41,5.52,2.41,8.801c0,4.854-1.738,8.733-5.212,11.638
	c-3.475,2.905-8.243,4.358-14.304,4.358H338.48z M338.48,59.947h7.861c2.324,0,4.096-0.581,5.315-1.743
	c1.219-1.162,1.829-2.803,1.829-4.922c0-2.324-0.627-4.181-1.88-5.571c-1.253-1.39-2.962-2.096-5.127-2.119h-7.998V59.947z"/>
<path fill="#FFFFFF" d="M384.828,86.094h-11.963V36.329h11.963V86.094z"/>
<path fill="#FFFFFF" d="M433.431,69.244c-0.16,3.464-1.094,6.523-2.803,9.177c-1.709,2.655-4.107,4.711-7.195,6.169
	c-3.088,1.458-6.614,2.188-10.579,2.188c-6.54,0-11.689-2.13-15.449-6.392c-3.76-4.261-5.64-10.276-5.64-18.047v-2.461
	c0-4.876,0.849-9.143,2.546-12.8c1.697-3.657,4.141-6.482,7.332-8.477c3.19-1.994,6.881-2.991,11.074-2.991
	c6.038,0,10.892,1.589,14.561,4.768c3.668,3.179,5.753,7.56,6.255,13.142h-11.963c-0.091-3.03-0.854-5.207-2.29-6.528
	c-1.436-1.321-3.623-1.982-6.563-1.982c-2.985,0-5.173,1.117-6.563,3.35c-1.39,2.233-2.119,5.799-2.188,10.698v3.521
	c0,5.31,0.667,9.104,2,11.382c1.333,2.279,3.628,3.418,6.887,3.418c2.757,0,4.865-0.649,6.323-1.948
	c1.458-1.299,2.233-3.361,2.324-6.187H433.431z"/>
<path fill="#FFFFFF" d="M456.024,67.569l-4.922,5.4v13.125h-11.997V36.329h11.997v21.943l4.17-6.323l10.732-15.62h14.834
	L464.022,58.34l16.816,27.754H466.62L456.024,67.569z"/>
<path fill="#FFFFFF" d="M514.744,64.971h-18.867v11.895h22.285v9.229H483.88V36.329h34.35v9.263h-22.354v10.493h18.867V64.971z"/>
<path fill="#FFFFFF" d="M541.542,68.492h-6.494v17.603h-11.997V36.329h19.585c5.901,0,10.516,1.309,13.843,3.926
	c3.326,2.618,4.99,6.317,4.99,11.097c0,3.46-0.701,6.328-2.102,8.604c-1.402,2.276-3.596,4.12-6.58,5.531l10.391,20.094v0.513
	h-12.852L541.542,68.492z M535.048,59.263h7.588c2.278,0,3.993-0.599,5.144-1.799c1.15-1.199,1.727-2.873,1.727-5.02
	c0-2.147-0.581-3.832-1.743-5.054c-1.162-1.222-2.871-1.833-5.127-1.833h-7.588V59.263z"/>
<path fill="#FFFFFF" d="M74.715,150.27H55.37v19.824H43.373v-49.766h33.291v9.263H55.37v11.45h19.346V150.27z"/>
<path fill="#FFFFFF" d="M123.797,146.237c0,4.854-0.9,9.149-2.7,12.886c-1.8,3.737-4.358,6.614-7.673,8.63
	s-7.092,3.025-11.331,3.025s-7.998-0.974-11.279-2.922s-5.839-4.734-7.673-8.357c-1.834-3.623-2.797-7.781-2.888-12.476v-2.803
	c0-4.876,0.894-9.177,2.683-12.903c1.789-3.726,4.352-6.602,7.69-8.63c3.338-2.028,7.138-3.042,11.399-3.042
	c4.215,0,7.975,1.003,11.279,3.008c3.304,2.005,5.873,4.859,7.708,8.562c1.834,3.703,2.763,7.947,2.786,12.732V146.237z
	 M111.595,144.152c0-4.944-0.826-8.699-2.478-11.262c-1.652-2.563-4.016-3.845-7.092-3.845c-6.016,0-9.194,4.512-9.536,13.535
	l-0.034,3.657c0,4.876,0.809,8.625,2.427,11.245c1.618,2.621,4.021,3.931,7.212,3.931c3.03,0,5.366-1.287,7.007-3.862
	c1.641-2.575,2.472-6.277,2.495-11.108V144.152z"/>
<path fill="#FFFFFF" d="M148.475,152.492h-6.494v17.603h-11.997v-49.766h19.585c5.901,0,10.516,1.309,13.843,3.926
	c3.327,2.618,4.99,6.317,4.99,11.097c0,3.46-0.701,6.328-2.102,8.604c-1.401,2.276-3.595,4.12-6.58,5.531l10.391,20.094v0.513
	h-12.852L148.475,152.492z M141.981,143.263h7.588c2.278,0,3.993-0.599,5.144-1.799c1.15-1.199,1.726-2.873,1.726-5.02
	c0-2.147-0.581-3.832-1.743-5.054c-1.162-1.222-2.871-1.833-5.127-1.833h-7.588V143.263z"/>
<path fill="#FFFFFF" d="M211.571,152.492h-6.494v17.603H193.08v-49.766h19.585c5.901,0,10.516,1.309,13.843,3.926
	c3.327,2.618,4.99,6.317,4.99,11.097c0,3.46-0.701,6.328-2.102,8.604c-1.401,2.276-3.595,4.12-6.58,5.531l10.391,20.094v0.513
	h-12.852L211.571,152.492z M205.077,143.263h7.588c2.278,0,3.993-0.599,5.144-1.799c1.15-1.199,1.726-2.873,1.726-5.02
	c0-2.147-0.581-3.832-1.743-5.054c-1.162-1.222-2.871-1.833-5.127-1.833h-7.588V143.263z"/>
<path fill="#FFFFFF" d="M269.608,148.971h-18.867v11.895h22.285v9.229h-34.282v-49.766h34.351v9.263h-22.354v10.493h18.867V148.971z
	"/>
<path fill="#FFFFFF" d="M277.914,170.094v-49.766h16.03c4.397,0,8.351,0.997,11.86,2.991c3.509,1.994,6.249,4.808,8.22,8.442
	c1.971,3.635,2.968,7.708,2.991,12.219v2.29c0,4.558-0.963,8.642-2.888,12.253c-1.926,3.612-4.637,6.438-8.135,8.477
	c-3.498,2.04-7.4,3.071-11.707,3.093H277.914z M289.911,129.591v31.274h4.17c3.44,0,6.084-1.225,7.93-3.674
	c1.846-2.449,2.769-6.089,2.769-10.92v-2.153c0-4.808-0.923-8.431-2.769-10.869c-1.846-2.438-4.535-3.657-8.066-3.657H289.911z"/>
<path fill="#FFFFFF" d="M362.201,120.329v32.573c0,3.691-0.786,6.887-2.358,9.587s-3.828,4.757-6.768,6.169
	c-2.939,1.413-6.415,2.119-10.425,2.119c-6.062,0-10.835-1.572-14.321-4.717s-5.264-7.451-5.332-12.92v-32.813h12.065v33.052
	c0.137,5.446,2.666,8.169,7.588,8.169c2.483,0,4.363-0.684,5.64-2.051c1.276-1.367,1.914-3.589,1.914-6.665v-32.505H362.201z"/>
<path fill="#FFFFFF" d="M388.246,136.872l8.135-16.543h13.706l-13.911,24.678l14.287,25.088H396.62l-8.374-16.851l-8.374,16.851
	h-13.809l14.253-25.088l-13.877-24.678h13.672L388.246,136.872z"/>
<path fill="#FFFFFF" d="M463.133,150.27h-19.346v19.824h-11.997v-49.766h33.291v9.263h-21.294v11.45h19.346V150.27z"/>
<path fill="#FFFFFF" d="M512.215,146.237c0,4.854-0.9,9.149-2.699,12.886c-1.801,3.737-4.358,6.614-7.674,8.63
	s-7.092,3.025-11.331,3.025c-4.238,0-7.998-0.974-11.279-2.922s-5.839-4.734-7.673-8.357c-1.834-3.623-2.797-7.781-2.888-12.476
	v-2.803c0-4.876,0.894-9.177,2.683-12.903c1.789-3.726,4.352-6.602,7.69-8.63c3.338-2.028,7.138-3.042,11.399-3.042
	c4.215,0,7.975,1.003,11.28,3.008c3.303,2.005,5.872,4.859,7.707,8.562c1.834,3.703,2.763,7.947,2.785,12.732V146.237z
	 M500.014,144.152c0-4.944-0.827-8.699-2.479-11.262c-1.652-2.563-4.016-3.845-7.092-3.845c-6.016,0-9.194,4.512-9.536,13.535
	l-0.034,3.657c0,4.876,0.809,8.625,2.427,11.245c1.618,2.621,4.021,3.931,7.212,3.931c3.03,0,5.366-1.287,7.006-3.862
	c1.641-2.575,2.473-6.277,2.496-11.108V144.152z"/>
<path fill="#FFFFFF" d="M536.894,152.492h-6.494v17.603h-11.997v-49.766h19.585c5.901,0,10.516,1.309,13.843,3.926
	c3.326,2.618,4.99,6.317,4.99,11.097c0,3.46-0.701,6.328-2.102,8.604c-1.402,2.276-3.596,4.12-6.58,5.531l10.391,20.094v0.513
	h-12.852L536.894,152.492z M530.399,143.263h7.588c2.278,0,3.993-0.599,5.144-1.799c1.15-1.199,1.727-2.873,1.727-5.02
	c0-2.147-0.581-3.832-1.743-5.054c-1.162-1.222-2.871-1.833-5.127-1.833h-7.588V143.263z"/>
<path fill="#FFFFFF" d="M579.823,120.329l11.108,34.624l11.074-34.624h15.791v49.766h-12.031v-11.621l1.162-23.789l-12.031,35.41
	h-7.93l-12.065-35.444l1.162,23.823v11.621h-11.997v-49.766H579.823z"/>
<path fill="#FFFFFF" d="M44.894,224.6v10.887H43.15v-24.985h5.947c3.099,0,5.389,0.572,6.87,1.718
	c1.481,1.145,2.222,2.868,2.222,5.17c0,1.674-0.442,3.087-1.325,4.238c-0.883,1.15-2.225,1.977-4.024,2.478l6.785,11.382H57.54
	L51.097,224.6H44.894z M44.894,223.096h4.768c2.107,0,3.743-0.47,4.905-1.409c1.162-0.94,1.743-2.327,1.743-4.161
	c0-1.903-0.57-3.287-1.709-4.153c-1.14-0.865-2.997-1.299-5.571-1.299h-4.136V223.096z"/>
<path fill="#FFFFFF" d="M71.024,235.828c-2.7,0-4.805-0.831-6.314-2.495c-1.51-1.663-2.265-3.993-2.265-6.989
	c0-2.963,0.729-5.335,2.188-7.118c1.458-1.783,3.423-2.675,5.896-2.675c2.188,0,3.914,0.764,5.178,2.29
	c1.265,1.527,1.897,3.601,1.897,6.221v1.367H64.222c0.022,2.553,0.618,4.501,1.786,5.845c1.167,1.345,2.839,2.017,5.016,2.017
	c1.06,0,1.991-0.074,2.794-0.222c0.804-0.148,1.82-0.468,3.051-0.957v1.537c-1.048,0.456-2.017,0.767-2.905,0.932
	S72.095,235.828,71.024,235.828z M70.528,218.055c-1.789,0-3.225,0.59-4.307,1.769c-1.083,1.18-1.715,2.88-1.897,5.102h11.484
	c0-2.153-0.467-3.837-1.401-5.05C73.473,218.661,72.18,218.055,70.528,218.055z"/>
<path fill="#FFFFFF" d="M89.532,216.551c1.344,0,2.506,0.245,3.486,0.734c0.979,0.49,1.857,1.328,2.632,2.513h0.103
	c-0.068-1.436-0.103-2.843-0.103-4.222v-6.682h1.675v26.592h-1.111l-0.427-2.837H95.65c-1.413,2.119-3.441,3.179-6.084,3.179
	c-2.563,0-4.523-0.797-5.879-2.393c-1.356-1.595-2.034-3.919-2.034-6.973c0-3.213,0.672-5.668,2.017-7.365
	C85.015,217.399,86.969,216.551,89.532,216.551z M89.532,218.089c-2.028,0-3.552,0.712-4.572,2.136
	c-1.02,1.425-1.529,3.493-1.529,6.204c0,5.264,2.045,7.896,6.135,7.896c2.096,0,3.634-0.609,4.614-1.828
	c0.979-1.22,1.47-3.23,1.47-6.033v-0.291c0-2.871-0.481-4.936-1.444-6.194C93.243,218.719,91.686,218.089,89.532,218.089z"/>
<path fill="#FFFFFF" d="M105.033,216.91v12.031c0,1.868,0.393,3.227,1.179,4.075c0.786,0.85,2.005,1.273,3.657,1.273
	c2.21,0,3.836-0.558,4.879-1.675c1.042-1.116,1.563-2.934,1.563-5.451V216.91h1.675v18.576h-1.436l-0.308-2.563h-0.103
	c-1.208,1.938-3.355,2.905-6.443,2.905c-4.227,0-6.34-2.262-6.34-6.785V216.91H105.033z"/>
<path fill="#FFFFFF" d="M128.771,225.934l-6.477-9.023h1.948l5.537,7.826l5.486-7.826h1.863l-6.375,9.023l6.836,9.553h-1.965
	l-5.845-8.289l-5.879,8.289h-1.863L128.771,225.934z"/>
<path fill="#FFFFFF" d="M152.901,235.486h-1.743v-24.985h13.689v1.606h-11.946v10.596h11.279v1.623h-11.279V235.486z"/>
<path fill="#FFFFFF" d="M183.663,226.172c0,3.031-0.735,5.398-2.205,7.102s-3.498,2.555-6.084,2.555
	c-1.629,0-3.065-0.393-4.307-1.18c-1.242-0.785-2.193-1.914-2.854-3.383c-0.661-1.471-0.991-3.168-0.991-5.094
	c0-3.03,0.735-5.392,2.205-7.083c1.47-1.692,3.486-2.538,6.05-2.538c2.552,0,4.555,0.857,6.007,2.572
	C182.937,220.838,183.663,223.188,183.663,226.172z M169,226.172c0,2.553,0.561,4.544,1.683,5.974s2.709,2.145,4.76,2.145
	s3.637-0.715,4.76-2.145c1.122-1.43,1.683-3.421,1.683-5.974c0-2.563-0.567-4.551-1.701-5.964c-1.134-1.412-2.726-2.119-4.776-2.119
	s-3.632,0.704-4.742,2.11C169.555,221.606,169,223.598,169,226.172z"/>
<path fill="#FFFFFF" d="M196.122,216.551c0.786,0,1.629,0.08,2.529,0.239l-0.325,1.624c-0.775-0.194-1.578-0.291-2.41-0.291
	c-1.584,0-2.883,0.673-3.896,2.017c-1.014,1.345-1.521,3.042-1.521,5.093v10.254h-1.692V216.91h1.436l0.171,3.35h0.12
	c0.763-1.367,1.578-2.327,2.444-2.88C193.843,216.827,194.891,216.551,196.122,216.551z"/>
<path fill="#FFFFFF" d="M225.636,235.486v-12.186c0-1.811-0.354-3.133-1.06-3.965c-0.707-0.831-1.789-1.247-3.247-1.247
	c-1.903,0-3.31,0.524-4.221,1.572c-0.912,1.049-1.367,2.694-1.367,4.938v10.887h-1.726v-12.697c0-3.134-1.436-4.7-4.307-4.7
	c-1.948,0-3.367,0.567-4.255,1.7c-0.889,1.134-1.333,2.948-1.333,5.443v10.254h-1.692V216.91h1.401l0.359,2.546h0.103
	c0.513-0.923,1.242-1.638,2.188-2.145c0.945-0.507,1.988-0.761,3.127-0.761c2.928,0,4.808,1.1,5.64,3.299h0.068
	c0.604-1.061,1.416-1.874,2.435-2.444c1.02-0.569,2.179-0.854,3.478-0.854c2.028,0,3.549,0.541,4.563,1.623
	c1.014,1.083,1.521,2.803,1.521,5.162v12.15H225.636z"/>
<path fill="#FFFFFF" d="M253.509,211.715c-3.133,0-5.6,1.002-7.4,3.008c-1.8,2.005-2.7,4.75-2.7,8.236
	c0,3.566,0.849,6.335,2.546,8.307c1.697,1.971,4.124,2.956,7.28,2.956c2.096,0,4.021-0.268,5.776-0.804v1.539
	c-1.652,0.58-3.714,0.871-6.187,0.871c-3.509,0-6.272-1.134-8.289-3.4c-2.017-2.268-3.025-5.436-3.025-9.502
	c0-2.541,0.481-4.779,1.444-6.717c0.962-1.937,2.347-3.432,4.152-4.486c1.806-1.054,3.905-1.58,6.298-1.58
	c2.438,0,4.62,0.455,6.545,1.367l-0.701,1.572C257.428,212.17,255.514,211.715,253.509,211.715z"/>
<path fill="#FFFFFF" d="M265.626,216.91v12.031c0,1.868,0.393,3.227,1.179,4.075c0.786,0.85,2.005,1.273,3.657,1.273
	c2.21,0,3.837-0.558,4.879-1.675c1.043-1.116,1.564-2.934,1.564-5.451V216.91h1.675v18.576h-1.436l-0.308-2.563h-0.103
	c-1.208,1.938-3.355,2.905-6.443,2.905c-4.227,0-6.34-2.262-6.34-6.785V216.91H265.626z"/>
<path fill="#FFFFFF" d="M296.319,230.65c0,1.663-0.632,2.942-1.897,3.836c-1.265,0.895-3.059,1.342-5.383,1.342
	c-2.484,0-4.455-0.382-5.913-1.145v-1.829c1.868,0.935,3.839,1.401,5.913,1.401c1.834,0,3.227-0.305,4.178-0.914
	s1.427-1.421,1.427-2.436c0-0.934-0.379-1.72-1.136-2.358c-0.758-0.638-2.003-1.265-3.734-1.88c-1.857-0.672-3.162-1.25-3.914-1.734
	s-1.319-1.031-1.701-1.641s-0.572-1.353-0.572-2.23c0-1.39,0.583-2.489,1.752-3.299c1.167-0.809,2.799-1.213,4.896-1.213
	c2.005,0,3.908,0.376,5.708,1.128l-0.632,1.538c-1.823-0.752-3.515-1.128-5.076-1.128c-1.516,0-2.717,0.251-3.606,0.752
	c-0.889,0.502-1.333,1.196-1.333,2.085c0,0.969,0.344,1.743,1.034,2.324c0.689,0.581,2.036,1.23,4.042,1.948
	c1.675,0.604,2.894,1.148,3.657,1.632c0.763,0.484,1.335,1.034,1.717,1.649S296.319,229.818,296.319,230.65z"/>
<path fill="#FFFFFF" d="M306.009,234.324c1.071,0,2.005-0.091,2.803-0.273v1.367c-0.82,0.273-1.766,0.41-2.837,0.41
	c-1.641,0-2.852-0.438-3.632-1.316c-0.78-0.877-1.17-2.256-1.17-4.135v-11.998h-2.751v-0.99l2.751-0.77l0.854-4.204h0.872v4.495
	h5.452v1.469h-5.452v11.758c0,1.425,0.25,2.479,0.752,3.162C304.152,233.982,304.938,234.324,306.009,234.324z"/>
<path fill="#FFFFFF" d="M328.192,226.172c0,3.031-0.735,5.398-2.205,7.102s-3.498,2.555-6.084,2.555
	c-1.629,0-3.065-0.393-4.307-1.18c-1.242-0.785-2.193-1.914-2.854-3.383c-0.661-1.471-0.991-3.168-0.991-5.094
	c0-3.03,0.735-5.392,2.205-7.083c1.47-1.692,3.486-2.538,6.05-2.538c2.552,0,4.554,0.857,6.007,2.572
	C327.465,220.838,328.192,223.188,328.192,226.172z M313.529,226.172c0,2.553,0.561,4.544,1.684,5.974
	c1.122,1.43,2.708,2.145,4.759,2.145s3.637-0.715,4.759-2.145s1.684-3.421,1.684-5.974c0-2.563-0.567-4.551-1.7-5.964
	c-1.134-1.412-2.726-2.119-4.777-2.119s-3.631,0.704-4.743,2.11C314.084,221.606,313.529,223.598,313.529,226.172z"/>
<path fill="#FFFFFF" d="M356.544,235.486v-12.186c0-1.811-0.354-3.133-1.06-3.965c-0.707-0.831-1.789-1.247-3.247-1.247
	c-1.903,0-3.31,0.524-4.221,1.572c-0.912,1.049-1.367,2.694-1.367,4.938v10.887h-1.726v-12.697c0-3.134-1.436-4.7-4.307-4.7
	c-1.948,0-3.367,0.567-4.255,1.7c-0.889,1.134-1.333,2.948-1.333,5.443v10.254h-1.692V216.91h1.401l0.359,2.546h0.103
	c0.513-0.923,1.242-1.638,2.188-2.145c0.945-0.507,1.988-0.761,3.127-0.761c2.928,0,4.808,1.1,5.64,3.299h0.068
	c0.604-1.061,1.416-1.874,2.435-2.444c1.02-0.569,2.179-0.854,3.478-0.854c2.028,0,3.549,0.541,4.563,1.623
	c1.014,1.083,1.521,2.803,1.521,5.162v12.15H356.544z"/>
<path fill="#FFFFFF" d="M373.753,235.486v-24.985h1.743v24.985H373.753z"/>
<path fill="#FFFFFF" d="M395.099,235.486v-12.049c0-1.868-0.393-3.227-1.179-4.075s-2.005-1.273-3.657-1.273
	c-2.222,0-3.848,0.562-4.879,1.684c-1.032,1.122-1.547,2.942-1.547,5.46v10.254h-1.692V216.91h1.436l0.325,2.546h0.103
	c1.208-1.937,3.355-2.905,6.443-2.905c4.215,0,6.323,2.262,6.323,6.785v12.15H395.099z"/>
<path fill="#FFFFFF" d="M410.736,235.828c-2.86,0-4.945-1.07-6.255-3.213h-0.12l0.051,1.436c0.045,0.844,0.068,1.766,0.068,2.769
	v7.075h-1.692V216.91h1.436l0.325,2.648h0.103c1.276-2.005,3.315-3.008,6.118-3.008c2.506,0,4.418,0.823,5.733,2.47
	c1.316,1.646,1.974,4.042,1.974,7.187c0,3.053-0.692,5.42-2.077,7.101C415.017,234.988,413.128,235.828,410.736,235.828z
	 M410.702,234.324c1.902,0,3.375-0.706,4.418-2.119c1.042-1.412,1.563-3.39,1.563-5.93c0-5.458-1.971-8.187-5.913-8.187
	c-2.165,0-3.754,0.596-4.768,1.786c-1.014,1.19-1.521,3.13-1.521,5.818v0.547c0,2.906,0.487,4.979,1.461,6.221
	C406.917,233.703,408.502,234.324,410.702,234.324z"/>
<path fill="#FFFFFF" d="M425.091,216.91v12.031c0,1.868,0.393,3.227,1.179,4.075c0.786,0.85,2.005,1.273,3.657,1.273
	c2.21,0,3.836-0.558,4.879-1.675c1.042-1.116,1.563-2.934,1.563-5.451V216.91h1.675v18.576h-1.436l-0.308-2.563H436.2
	c-1.208,1.938-3.355,2.905-6.443,2.905c-4.227,0-6.34-2.262-6.34-6.785V216.91H425.091z"/>
<path fill="#FFFFFF" d="M449.171,234.324c1.071,0,2.005-0.091,2.803-0.273v1.367c-0.82,0.273-1.766,0.41-2.837,0.41
	c-1.641,0-2.852-0.438-3.631-1.316c-0.781-0.877-1.171-2.256-1.171-4.135v-11.998h-2.751v-0.99l2.751-0.77l0.854-4.204h0.872v4.495
	h5.452v1.469h-5.452v11.758c0,1.425,0.25,2.479,0.752,3.162C447.313,233.982,448.1,234.324,449.171,234.324z"/>
<path fill="#FFFFFF" d="M53.814,253.715c-3.133,0-5.6,1.002-7.4,3.008c-1.8,2.005-2.7,4.75-2.7,8.236
	c0,3.566,0.849,6.335,2.546,8.307c1.697,1.971,4.124,2.956,7.28,2.956c2.096,0,4.021-0.268,5.776-0.804v1.539
	c-1.652,0.58-3.714,0.871-6.187,0.871c-3.509,0-6.272-1.134-8.289-3.4c-2.017-2.268-3.025-5.436-3.025-9.502
	c0-2.541,0.481-4.779,1.444-6.717c0.963-1.937,2.347-3.432,4.153-4.486c1.805-1.054,3.905-1.58,6.297-1.58
	c2.438,0,4.62,0.455,6.545,1.367l-0.701,1.572C57.733,254.17,55.819,253.715,53.814,253.715z"/>
<path fill="#FFFFFF" d="M79.825,268.172c0,3.031-0.735,5.398-2.205,7.102s-3.498,2.555-6.084,2.555c-1.629,0-3.065-0.393-4.307-1.18
	c-1.242-0.785-2.193-1.914-2.854-3.383c-0.661-1.471-0.991-3.168-0.991-5.094c0-3.03,0.735-5.392,2.205-7.083
	c1.47-1.692,3.486-2.538,6.05-2.538c2.552,0,4.555,0.857,6.007,2.572C79.099,262.838,79.825,265.188,79.825,268.172z
	 M65.162,268.172c0,2.553,0.561,4.544,1.683,5.974s2.709,2.145,4.76,2.145s3.637-0.715,4.76-2.145
	c1.122-1.43,1.683-3.421,1.683-5.974c0-2.563-0.567-4.551-1.701-5.964c-1.134-1.412-2.726-2.119-4.776-2.119
	s-3.632,0.704-4.742,2.11C65.717,263.606,65.162,265.598,65.162,268.172z"/>
<path fill="#FFFFFF" d="M108.177,277.486v-12.186c0-1.811-0.354-3.133-1.06-3.965c-0.707-0.831-1.789-1.247-3.247-1.247
	c-1.903,0-3.31,0.524-4.221,1.572c-0.912,1.049-1.367,2.694-1.367,4.938v10.887h-1.726v-12.697c0-3.134-1.436-4.7-4.307-4.7
	c-1.948,0-3.367,0.567-4.255,1.7c-0.889,1.134-1.333,2.948-1.333,5.443v10.254h-1.692V258.91h1.401l0.359,2.546h0.103
	c0.513-0.923,1.242-1.638,2.188-2.145c0.945-0.507,1.988-0.761,3.127-0.761c2.928,0,4.808,1.1,5.64,3.299h0.068
	c0.604-1.061,1.416-1.874,2.436-2.444c1.019-0.569,2.179-0.854,3.478-0.854c2.028,0,3.549,0.541,4.563,1.623
	c1.014,1.083,1.521,2.803,1.521,5.162v12.15H108.177z"/>
<path fill="#FFFFFF" d="M123.814,277.828c-2.86,0-4.945-1.07-6.255-3.213h-0.12l0.051,1.436c0.045,0.844,0.068,1.766,0.068,2.769
	v7.075h-1.692V258.91h1.436l0.325,2.648h0.103c1.276-2.005,3.315-3.008,6.118-3.008c2.506,0,4.417,0.823,5.734,2.47
	c1.315,1.646,1.974,4.042,1.974,7.187c0,3.053-0.692,5.42-2.076,7.101C128.095,276.988,126.207,277.828,123.814,277.828z
	 M123.78,276.324c1.902,0,3.375-0.706,4.417-2.119c1.043-1.412,1.564-3.39,1.564-5.93c0-5.458-1.971-8.187-5.913-8.187
	c-2.165,0-3.754,0.596-4.768,1.786c-1.014,1.19-1.521,3.13-1.521,5.818v0.547c0,2.906,0.487,4.979,1.461,6.221
	C119.995,275.703,121.581,276.324,123.78,276.324z"/>
<path fill="#FFFFFF" d="M152.064,268.172c0,3.031-0.735,5.398-2.205,7.102s-3.498,2.555-6.084,2.555
	c-1.629,0-3.065-0.393-4.307-1.18c-1.242-0.785-2.193-1.914-2.854-3.383c-0.661-1.471-0.991-3.168-0.991-5.094
	c0-3.03,0.735-5.392,2.205-7.083c1.47-1.692,3.486-2.538,6.05-2.538c2.552,0,4.554,0.857,6.007,2.572
	C151.337,262.838,152.064,265.188,152.064,268.172z M137.401,268.172c0,2.553,0.561,4.544,1.684,5.974
	c1.122,1.43,2.708,2.145,4.759,2.145s3.637-0.715,4.759-2.145s1.684-3.421,1.684-5.974c0-2.563-0.567-4.551-1.7-5.964
	c-1.134-1.412-2.726-2.119-4.777-2.119s-3.631,0.704-4.743,2.11C137.957,263.606,137.401,265.598,137.401,268.172z"/>
<path fill="#FFFFFF" d="M170.162,277.486v-12.049c0-1.868-0.393-3.227-1.179-4.075s-2.005-1.273-3.657-1.273
	c-2.222,0-3.848,0.562-4.879,1.684c-1.032,1.122-1.547,2.942-1.547,5.46v10.254h-1.692V258.91h1.436l0.325,2.546h0.103
	c1.208-1.937,3.355-2.905,6.443-2.905c4.215,0,6.323,2.262,6.323,6.785v12.15H170.162z"/>
<path fill="#FFFFFF" d="M185.355,277.828c-2.7,0-4.805-0.831-6.314-2.495c-1.51-1.663-2.265-3.993-2.265-6.989
	c0-2.963,0.729-5.335,2.188-7.118c1.458-1.783,3.423-2.675,5.896-2.675c2.188,0,3.914,0.764,5.178,2.29
	c1.265,1.527,1.897,3.601,1.897,6.221v1.367h-13.381c0.022,2.553,0.618,4.501,1.786,5.845c1.167,1.345,2.839,2.017,5.016,2.017
	c1.06,0,1.991-0.074,2.794-0.222c0.804-0.148,1.82-0.468,3.051-0.957v1.537c-1.048,0.456-2.017,0.767-2.905,0.932
	S186.426,277.828,185.355,277.828z M184.859,260.055c-1.789,0-3.225,0.59-4.307,1.769c-1.083,1.18-1.715,2.88-1.897,5.102h11.484
	c0-2.153-0.467-3.837-1.401-5.05C187.804,260.661,186.511,260.055,184.859,260.055z"/>
<path fill="#FFFFFF" d="M210.016,277.486v-12.049c0-1.868-0.393-3.227-1.179-4.075s-2.005-1.273-3.657-1.273
	c-2.222,0-3.848,0.562-4.879,1.684c-1.032,1.122-1.547,2.942-1.547,5.46v10.254h-1.692V258.91h1.436l0.325,2.546h0.103
	c1.208-1.937,3.355-2.905,6.443-2.905c4.215,0,6.323,2.262,6.323,6.785v12.15H210.016z"/>
<path fill="#FFFFFF" d="M222.611,276.324c1.071,0,2.005-0.091,2.803-0.273v1.367c-0.82,0.273-1.766,0.41-2.837,0.41
	c-1.641,0-2.852-0.438-3.632-1.316c-0.78-0.877-1.17-2.256-1.17-4.135v-11.998h-2.751v-0.99l2.751-0.77l0.854-4.204h0.872v4.495
	h5.452v1.469H219.5v11.758c0,1.425,0.25,2.479,0.752,3.162C220.753,275.982,221.54,276.324,222.611,276.324z"/>
<path fill="#FFFFFF" d="M243.426,276.324c1.071,0,2.005-0.091,2.803-0.273v1.367c-0.82,0.273-1.766,0.41-2.837,0.41
	c-1.641,0-2.852-0.438-3.632-1.316c-0.78-0.877-1.17-2.256-1.17-4.135v-11.998h-2.751v-0.99l2.751-0.77l0.854-4.204h0.872v4.495
	h5.452v1.469h-5.452v11.758c0,1.425,0.25,2.479,0.752,3.162C241.569,275.982,242.355,276.324,243.426,276.324z"/>
<path fill="#FFFFFF" d="M265.609,268.172c0,3.031-0.735,5.398-2.205,7.102s-3.498,2.555-6.084,2.555
	c-1.629,0-3.065-0.393-4.307-1.18c-1.242-0.785-2.193-1.914-2.854-3.383c-0.661-1.471-0.991-3.168-0.991-5.094
	c0-3.03,0.735-5.392,2.205-7.083c1.47-1.692,3.486-2.538,6.05-2.538c2.552,0,4.554,0.857,6.007,2.572
	C264.882,262.838,265.609,265.188,265.609,268.172z M250.946,268.172c0,2.553,0.561,4.544,1.684,5.974
	c1.122,1.43,2.708,2.145,4.759,2.145s3.637-0.715,4.759-2.145s1.684-3.421,1.684-5.974c0-2.563-0.567-4.551-1.7-5.964
	c-1.134-1.412-2.726-2.119-4.777-2.119s-3.631,0.704-4.743,2.11C251.501,263.606,250.946,265.598,250.946,268.172z"/>
<path fill="#FFFFFF" d="M281.314,258.91v12.031c0,1.868,0.393,3.227,1.179,4.075c0.786,0.85,2.005,1.273,3.657,1.273
	c2.21,0,3.837-0.558,4.879-1.675c1.043-1.116,1.564-2.934,1.564-5.451V258.91h1.675v18.576h-1.436l-0.308-2.563h-0.103
	c-1.208,1.938-3.355,2.905-6.443,2.905c-4.227,0-6.34-2.262-6.34-6.785V258.91H281.314z"/>
<path fill="#FFFFFF" d="M312.008,272.65c0,1.663-0.632,2.942-1.897,3.836c-1.265,0.895-3.059,1.342-5.383,1.342
	c-2.484,0-4.455-0.382-5.913-1.145v-1.829c1.868,0.935,3.839,1.401,5.913,1.401c1.834,0,3.227-0.305,4.178-0.914
	s1.427-1.421,1.427-2.436c0-0.934-0.379-1.72-1.136-2.358c-0.758-0.638-2.003-1.265-3.734-1.88c-1.857-0.672-3.162-1.25-3.914-1.734
	s-1.319-1.031-1.701-1.641s-0.572-1.353-0.572-2.23c0-1.39,0.583-2.489,1.752-3.299c1.167-0.809,2.799-1.213,4.896-1.213
	c2.005,0,3.908,0.376,5.708,1.128L311,261.217c-1.823-0.752-3.515-1.128-5.076-1.128c-1.516,0-2.717,0.251-3.606,0.752
	c-0.889,0.502-1.333,1.196-1.333,2.085c0,0.969,0.344,1.743,1.034,2.324c0.689,0.581,2.036,1.23,4.042,1.948
	c1.675,0.604,2.894,1.148,3.657,1.632c0.763,0.484,1.335,1.034,1.717,1.649S312.008,271.818,312.008,272.65z"/>
<path fill="#FFFFFF" d="M324.295,277.828c-2.7,0-4.805-0.831-6.314-2.495c-1.51-1.663-2.265-3.993-2.265-6.989
	c0-2.963,0.729-5.335,2.188-7.118c1.458-1.783,3.423-2.675,5.896-2.675c2.188,0,3.914,0.764,5.178,2.29
	c1.265,1.527,1.897,3.601,1.897,6.221v1.367h-13.381c0.022,2.553,0.618,4.501,1.786,5.845c1.167,1.345,2.839,2.017,5.016,2.017
	c1.06,0,1.991-0.074,2.794-0.222c0.804-0.148,1.82-0.468,3.051-0.957v1.537c-1.048,0.456-2.017,0.767-2.905,0.932
	S325.366,277.828,324.295,277.828z M323.8,260.055c-1.789,0-3.225,0.59-4.307,1.769c-1.083,1.18-1.715,2.88-1.897,5.102h11.484
	c0-2.153-0.467-3.837-1.401-5.05C326.745,260.661,325.452,260.055,323.8,260.055z"/>
<path fill="#FFFFFF" d="M346.786,277.486h-1.692v-26.592h1.692V277.486z"/>
<path fill="#FFFFFF" d="M352.767,253.748c0-1.094,0.359-1.641,1.077-1.641c0.353,0,0.629,0.144,0.829,0.428
	c0.199,0.285,0.299,0.689,0.299,1.213c0,0.514-0.1,0.918-0.299,1.214c-0.199,0.297-0.476,0.444-0.829,0.444
	C353.126,255.406,352.767,254.854,352.767,253.748z M354.698,277.486h-1.692V258.91h1.692V277.486z"/>
<path fill="#FFFFFF" d="M362.577,269.334l9.485-10.424h2.051l-7.314,7.93l7.947,10.646h-2.034l-7.058-9.383l-3.042,2.77v6.613
	h-1.692v-26.592h1.692v13.33l-0.12,5.109H362.577z"/>
<path fill="#FFFFFF" d="M385.357,277.828c-2.7,0-4.805-0.831-6.315-2.495c-1.51-1.663-2.264-3.993-2.264-6.989
	c0-2.963,0.729-5.335,2.188-7.118c1.458-1.783,3.423-2.675,5.896-2.675c2.188,0,3.914,0.764,5.178,2.29
	c1.265,1.527,1.897,3.601,1.897,6.221v1.367h-13.381c0.022,2.553,0.618,4.501,1.786,5.845c1.168,1.345,2.84,2.017,5.016,2.017
	c1.06,0,1.991-0.074,2.794-0.222c0.803-0.148,1.82-0.468,3.05-0.957v1.537c-1.048,0.456-2.017,0.767-2.905,0.932
	S386.428,277.828,385.357,277.828z M384.862,260.055c-1.789,0-3.225,0.59-4.307,1.769c-1.083,1.18-1.715,2.88-1.897,5.102h11.484
	c0-2.153-0.467-3.837-1.401-5.05C387.807,260.661,386.514,260.055,384.862,260.055z"/>
<path fill="#FFFFFF" d="M417.435,277.486l-0.427-2.939h-0.137c-0.935,1.196-1.895,2.042-2.879,2.538
	c-0.986,0.495-2.151,0.743-3.495,0.743c-1.823,0-3.242-0.467-4.255-1.401c-1.014-0.934-1.521-2.228-1.521-3.88
	c0-1.811,0.754-3.218,2.265-4.221c1.509-1.002,3.694-1.532,6.554-1.59l3.538-0.102v-1.23c0-1.767-0.359-3.1-1.077-4
	c-0.718-0.899-1.875-1.35-3.469-1.35c-1.721,0-3.503,0.479-5.349,1.436l-0.632-1.47c2.039-0.957,4.056-1.436,6.05-1.436
	c2.039,0,3.563,0.53,4.572,1.589c1.008,1.061,1.512,2.712,1.512,4.957v12.355H417.435z M410.599,276.29
	c1.982,0,3.546-0.566,4.691-1.7c1.145-1.134,1.717-2.709,1.717-4.726v-1.829l-3.247,0.137c-2.609,0.126-4.469,0.533-5.58,1.223
	c-1.111,0.689-1.667,1.763-1.667,3.221c0,1.162,0.356,2.065,1.068,2.709C408.294,275.969,409.3,276.29,410.599,276.29z"/>
<path fill="#FFFFFF" d="M54.242,314.65c0,1.663-0.632,2.942-1.897,3.836c-1.265,0.895-3.059,1.342-5.383,1.342
	c-2.484,0-4.455-0.382-5.913-1.145v-1.829c1.868,0.935,3.839,1.401,5.913,1.401c1.834,0,3.227-0.305,4.179-0.914
	c0.951-0.609,1.427-1.421,1.427-2.436c0-0.934-0.379-1.72-1.137-2.358c-0.758-0.638-2.002-1.265-3.734-1.88
	c-1.857-0.672-3.162-1.25-3.914-1.734s-1.319-1.031-1.7-1.641c-0.382-0.609-0.573-1.353-0.573-2.23c0-1.39,0.583-2.489,1.751-3.299
	c1.168-0.809,2.8-1.213,4.896-1.213c2.005,0,3.908,0.376,5.708,1.128l-0.632,1.538c-1.823-0.752-3.515-1.128-5.076-1.128
	c-1.516,0-2.717,0.251-3.606,0.752c-0.889,0.502-1.333,1.196-1.333,2.085c0,0.969,0.344,1.743,1.034,2.324s2.037,1.23,4.042,1.948
	c1.675,0.604,2.894,1.148,3.657,1.632c0.763,0.484,1.335,1.034,1.718,1.649C54.051,313.095,54.242,313.818,54.242,314.65z"/>
<path fill="#FFFFFF" d="M66.529,319.828c-2.7,0-4.805-0.831-6.315-2.495c-1.51-1.663-2.264-3.993-2.264-6.989
	c0-2.963,0.729-5.335,2.188-7.118c1.458-1.783,3.423-2.675,5.896-2.675c2.188,0,3.914,0.764,5.178,2.29
	c1.265,1.527,1.897,3.601,1.897,6.221v1.367H59.728c0.022,2.553,0.618,4.501,1.786,5.845c1.168,1.345,2.84,2.017,5.016,2.017
	c1.06,0,1.991-0.074,2.794-0.222c0.803-0.148,1.82-0.468,3.05-0.957v1.537c-1.048,0.456-2.017,0.767-2.905,0.932
	S67.6,319.828,66.529,319.828z M66.034,302.055c-1.789,0-3.225,0.59-4.307,1.769c-1.083,1.18-1.715,2.88-1.897,5.102h11.484
	c0-2.153-0.467-3.837-1.401-5.05C68.979,302.661,67.686,302.055,66.034,302.055z"/>
<path fill="#FFFFFF" d="M79.928,319.486h-1.692v-26.592h1.692V319.486z"/>
<path fill="#FFFFFF" d="M93.651,319.828c-2.7,0-4.805-0.831-6.314-2.495c-1.51-1.663-2.265-3.993-2.265-6.989
	c0-2.963,0.729-5.335,2.188-7.118c1.458-1.783,3.423-2.675,5.896-2.675c2.188,0,3.914,0.764,5.178,2.29
	c1.265,1.527,1.897,3.601,1.897,6.221v1.367H86.849c0.022,2.553,0.618,4.501,1.786,5.845c1.167,1.345,2.839,2.017,5.016,2.017
	c1.06,0,1.991-0.074,2.794-0.222c0.804-0.148,1.82-0.468,3.051-0.957v1.537c-1.048,0.456-2.017,0.767-2.905,0.932
	S94.722,319.828,93.651,319.828z M93.155,302.055c-1.789,0-3.225,0.59-4.307,1.769c-1.083,1.18-1.715,2.88-1.897,5.102h11.484
	c0-2.153-0.467-3.837-1.401-5.05C96.1,302.661,94.807,302.055,93.155,302.055z"/>
<path fill="#FFFFFF" d="M112.774,319.828c-2.655,0-4.734-0.838-6.238-2.512c-1.504-1.676-2.256-4.011-2.256-7.008
	c0-3.076,0.78-5.471,2.341-7.186c1.561-1.715,3.697-2.572,6.409-2.572c1.606,0,3.145,0.279,4.614,0.838l-0.461,1.504
	c-1.606-0.536-3.002-0.804-4.187-0.804c-2.279,0-4.005,0.704-5.178,2.11c-1.174,1.407-1.76,3.433-1.76,6.076
	c0,2.506,0.586,4.469,1.76,5.887c1.173,1.419,2.814,2.128,4.922,2.128c1.686,0,3.252-0.302,4.7-0.905v1.572
	C116.255,319.537,114.7,319.828,112.774,319.828z"/>
<path fill="#FFFFFF" d="M126.891,318.324c1.071,0,2.005-0.091,2.803-0.273v1.367c-0.82,0.273-1.766,0.41-2.837,0.41
	c-1.641,0-2.852-0.438-3.631-1.316c-0.781-0.877-1.171-2.256-1.171-4.135v-11.998h-2.751v-0.99l2.751-0.77l0.854-4.204h0.872v4.495
	h5.452v1.469h-5.452v11.758c0,1.425,0.25,2.479,0.752,3.162C125.033,317.982,125.819,318.324,126.891,318.324z"/>
<path fill="#FFFFFF" d="M149.706,302.379h-4.375v17.107h-1.692v-17.107h-3.452v-0.99l3.452-0.633v-1.436
	c0-2.278,0.418-3.95,1.256-5.016c0.837-1.065,2.207-1.598,4.11-1.598c1.025,0,2.051,0.153,3.076,0.461l-0.393,1.47
	c-0.912-0.284-1.817-0.427-2.717-0.427c-1.322,0-2.259,0.39-2.811,1.17c-0.553,0.781-0.829,2.049-0.829,3.803v1.727h4.375V302.379z
	 M153.055,295.748c0-1.094,0.359-1.641,1.077-1.641c0.353,0,0.629,0.144,0.829,0.428c0.199,0.285,0.299,0.689,0.299,1.213
	c0,0.514-0.1,0.918-0.299,1.214c-0.199,0.297-0.476,0.444-0.829,0.444C153.414,297.406,153.055,296.854,153.055,295.748z
	 M154.986,319.486h-1.692V300.91h1.692V319.486z"/>
<path fill="#FFFFFF" d="M168.709,319.828c-2.7,0-4.805-0.831-6.314-2.495c-1.51-1.663-2.265-3.993-2.265-6.989
	c0-2.963,0.729-5.335,2.188-7.118c1.458-1.783,3.423-2.675,5.896-2.675c2.188,0,3.914,0.764,5.178,2.29
	c1.265,1.527,1.897,3.601,1.897,6.221v1.367h-13.381c0.022,2.553,0.618,4.501,1.786,5.845c1.167,1.345,2.839,2.017,5.016,2.017
	c1.06,0,1.991-0.074,2.794-0.222c0.804-0.148,1.82-0.468,3.051-0.957v1.537c-1.048,0.456-2.017,0.767-2.905,0.932
	S169.78,319.828,168.709,319.828z M168.214,302.055c-1.789,0-3.225,0.59-4.307,1.769c-1.083,1.18-1.715,2.88-1.897,5.102h11.484
	c0-2.153-0.467-3.837-1.401-5.05C171.159,302.661,169.866,302.055,168.214,302.055z"/>
<path fill="#FFFFFF" d="M182.108,319.486h-1.692v-26.592h1.692V319.486z"/>
<path fill="#FFFFFF" d="M195.13,300.551c1.344,0,2.506,0.245,3.486,0.734c0.979,0.49,1.857,1.328,2.632,2.513h0.103
	c-0.068-1.436-0.103-2.843-0.103-4.222v-6.682h1.675v26.592h-1.111l-0.427-2.837h-0.137c-1.413,2.119-3.441,3.179-6.084,3.179
	c-2.563,0-4.523-0.797-5.879-2.393c-1.356-1.595-2.034-3.919-2.034-6.973c0-3.213,0.672-5.668,2.017-7.365
	C190.613,301.399,192.567,300.551,195.13,300.551z M195.13,302.089c-2.028,0-3.552,0.712-4.571,2.136
	c-1.02,1.425-1.53,3.493-1.53,6.204c0,5.264,2.045,7.896,6.135,7.896c2.096,0,3.634-0.609,4.614-1.828
	c0.979-1.22,1.47-3.23,1.47-6.033v-0.291c0-2.871-0.481-4.936-1.444-6.194S197.284,302.089,195.13,302.089z"/>
<path fill="#FFFFFF" d="M225.157,302.379h-4.375v17.107h-1.692v-17.107h-3.452v-0.99l3.452-0.633v-1.436
	c0-2.278,0.419-3.95,1.256-5.016c0.838-1.065,2.208-1.598,4.11-1.598c1.025,0,2.051,0.153,3.076,0.461l-0.393,1.47
	c-0.912-0.284-1.817-0.427-2.717-0.427c-1.322,0-2.259,0.39-2.812,1.17c-0.553,0.781-0.829,2.049-0.829,3.803v1.727h4.375V302.379z"
	/>
<path fill="#FFFFFF" d="M244.11,310.172c0,3.031-0.735,5.398-2.205,7.102s-3.498,2.555-6.084,2.555c-1.629,0-3.065-0.393-4.307-1.18
	c-1.242-0.785-2.193-1.914-2.854-3.383c-0.661-1.471-0.991-3.168-0.991-5.094c0-3.03,0.735-5.392,2.205-7.083
	c1.47-1.692,3.486-2.538,6.05-2.538c2.552,0,4.554,0.857,6.007,2.572C243.383,304.838,244.11,307.188,244.11,310.172z
	 M229.447,310.172c0,2.553,0.561,4.544,1.684,5.974c1.122,1.43,2.708,2.145,4.759,2.145s3.637-0.715,4.759-2.145
	s1.684-3.421,1.684-5.974c0-2.563-0.567-4.551-1.7-5.964c-1.134-1.412-2.726-2.119-4.777-2.119s-3.631,0.704-4.743,2.11
	C230.002,305.606,229.447,307.598,229.447,310.172z"/>
<path fill="#FFFFFF" d="M256.568,300.551c0.786,0,1.629,0.08,2.529,0.239l-0.325,1.624c-0.775-0.194-1.578-0.291-2.41-0.291
	c-1.584,0-2.883,0.673-3.896,2.017c-1.014,1.345-1.521,3.042-1.521,5.093v10.254h-1.692V300.91h1.436l0.171,3.35h0.12
	c0.763-1.367,1.578-2.327,2.444-2.88C254.29,300.827,255.338,300.551,256.568,300.551z"/>
<path fill="#FFFFFF" d="M283.246,319.486l-0.427-2.939h-0.137c-0.935,1.196-1.895,2.042-2.879,2.538
	c-0.986,0.495-2.151,0.743-3.495,0.743c-1.823,0-3.242-0.467-4.255-1.401c-1.014-0.934-1.521-2.228-1.521-3.88
	c0-1.811,0.754-3.218,2.265-4.221c1.509-1.002,3.694-1.532,6.554-1.59l3.538-0.102v-1.23c0-1.767-0.359-3.1-1.077-4
	c-0.718-0.899-1.875-1.35-3.469-1.35c-1.721,0-3.503,0.479-5.349,1.436l-0.632-1.47c2.039-0.957,4.056-1.436,6.05-1.436
	c2.039,0,3.563,0.53,4.572,1.589c1.008,1.061,1.512,2.712,1.512,4.957v12.355H283.246z M276.41,318.29
	c1.982,0,3.546-0.566,4.691-1.7c1.145-1.134,1.717-2.709,1.717-4.726v-1.829l-3.247,0.137c-2.609,0.126-4.469,0.533-5.58,1.223
	c-1.111,0.689-1.667,1.763-1.667,3.221c0,1.162,0.356,2.065,1.068,2.709C274.105,317.969,275.111,318.29,276.41,318.29z"/>
<path fill="#FFFFFF" d="M294.576,319.486l-7.178-18.576h1.743l4.802,12.629c0.638,1.618,1.116,3.031,1.436,4.238h0.103
	c0.467-1.549,0.945-2.974,1.436-4.272l4.802-12.595h1.743l-7.178,18.576H294.576z"/>
<path fill="#FFFFFF" d="M317.853,319.486l-0.427-2.939h-0.137c-0.935,1.196-1.895,2.042-2.88,2.538
	c-0.985,0.495-2.15,0.743-3.495,0.743c-1.823,0-3.242-0.467-4.255-1.401c-1.014-0.934-1.521-2.228-1.521-3.88
	c0-1.811,0.754-3.218,2.264-4.221c1.51-1.002,3.694-1.532,6.554-1.59l3.538-0.102v-1.23c0-1.767-0.359-3.1-1.077-4
	c-0.718-0.899-1.875-1.35-3.469-1.35c-1.721,0-3.503,0.479-5.349,1.436l-0.632-1.47c2.039-0.957,4.056-1.436,6.05-1.436
	c2.039,0,3.563,0.53,4.571,1.589c1.009,1.061,1.513,2.712,1.513,4.957v12.355H317.853z M311.017,318.29
	c1.982,0,3.546-0.566,4.691-1.7c1.146-1.134,1.718-2.709,1.718-4.726v-1.829l-3.247,0.137c-2.609,0.126-4.469,0.533-5.58,1.223
	c-1.11,0.689-1.666,1.763-1.666,3.221c0,1.162,0.356,2.065,1.068,2.709C308.712,317.969,309.718,318.29,311.017,318.29z"/>
<path fill="#FFFFFF" d="M330.021,318.324c1.071,0,2.005-0.091,2.803-0.273v1.367c-0.82,0.273-1.766,0.41-2.837,0.41
	c-1.641,0-2.852-0.438-3.631-1.316c-0.781-0.877-1.171-2.256-1.171-4.135v-11.998h-2.751v-0.99l2.751-0.77l0.854-4.204h0.872v4.495
	h5.452v1.469h-5.452v11.758c0,1.425,0.25,2.479,0.752,3.162C328.163,317.982,328.949,318.324,330.021,318.324z"/>
<path fill="#FFFFFF" d="M348.119,319.486l-0.427-2.939h-0.137c-0.935,1.196-1.895,2.042-2.879,2.538
	c-0.986,0.495-2.151,0.743-3.495,0.743c-1.823,0-3.242-0.467-4.255-1.401c-1.014-0.934-1.521-2.228-1.521-3.88
	c0-1.811,0.754-3.218,2.265-4.221c1.509-1.002,3.694-1.532,6.554-1.59l3.538-0.102v-1.23c0-1.767-0.359-3.1-1.077-4
	c-0.718-0.899-1.875-1.35-3.469-1.35c-1.721,0-3.503,0.479-5.349,1.436l-0.632-1.47c2.039-0.957,4.056-1.436,6.05-1.436
	c2.039,0,3.563,0.53,4.572,1.589c1.008,1.061,1.512,2.712,1.512,4.957v12.355H348.119z M341.283,318.29
	c1.982,0,3.546-0.566,4.691-1.7c1.145-1.134,1.717-2.709,1.717-4.726v-1.829l-3.247,0.137c-2.609,0.126-4.469,0.533-5.58,1.223
	c-1.111,0.689-1.667,1.763-1.667,3.221c0,1.162,0.356,2.065,1.068,2.709C338.978,317.969,339.984,318.29,341.283,318.29z"/>
<path fill="#FFFFFF" d="M362.696,300.551c0.786,0,1.629,0.08,2.529,0.239l-0.325,1.624c-0.775-0.194-1.578-0.291-2.41-0.291
	c-1.584,0-2.883,0.673-3.896,2.017c-1.014,1.345-1.521,3.042-1.521,5.093v10.254h-1.692V300.91h1.436l0.171,3.35h0.12
	c0.763-1.367,1.578-2.327,2.444-2.88C360.417,300.827,361.466,300.551,362.696,300.551z"/>
<path fill="#FFFFFF" d="M380.521,314.65c0,1.663-0.632,2.942-1.897,3.836c-1.265,0.895-3.059,1.342-5.383,1.342
	c-2.484,0-4.455-0.382-5.913-1.145v-1.829c1.868,0.935,3.839,1.401,5.913,1.401c1.834,0,3.227-0.305,4.179-0.914
	c0.951-0.609,1.427-1.421,1.427-2.436c0-0.934-0.379-1.72-1.137-2.358c-0.758-0.638-2.002-1.265-3.734-1.88
	c-1.857-0.672-3.162-1.25-3.914-1.734s-1.319-1.031-1.7-1.641c-0.382-0.609-0.573-1.353-0.573-2.23c0-1.39,0.583-2.489,1.751-3.299
	c1.168-0.809,2.8-1.213,4.896-1.213c2.005,0,3.908,0.376,5.708,1.128l-0.632,1.538c-1.823-0.752-3.515-1.128-5.076-1.128
	c-1.516,0-2.717,0.251-3.606,0.752c-0.889,0.502-1.333,1.196-1.333,2.085c0,0.969,0.344,1.743,1.034,2.324s2.037,1.23,4.042,1.948
	c1.675,0.604,2.894,1.148,3.657,1.632c0.763,0.484,1.335,1.034,1.718,1.649C380.33,313.095,380.521,313.818,380.521,314.65z"/>
<rect x="663" y="33" fill="#1B9BCA" stroke="#D3D3D3" stroke-width="5" stroke-miterlimit="10" width="87.386" height="87.385"/>
<rect x="768.048" y="33" fill="#1B9BCA" stroke="#D3D3D3" stroke-width="5" stroke-miterlimit="10" width="87.386" height="87.385"/>
<rect x="873.908" y="33" fill="#1B9BCA" stroke="#D3D3D3" stroke-width="5" stroke-miterlimit="10" width="87.386" height="87.385"/>
<rect x="663.286" y="137" fill="#1B9BCA" stroke="#D3D3D3" stroke-width="5" stroke-miterlimit="10" width="87.386" height="87.385"/>
<rect x="768.334" y="137" fill="#1B9BCA" stroke="#F6F6F6" stroke-width="5" stroke-miterlimit="10" width="87.386" height="87.385"/>
<rect x="874.194" y="137" fill="#1B9BCA" stroke="#D3D3D3" stroke-width="5" stroke-miterlimit="10" width="87.386" height="87.385"/>
<path id="path4109_1_" fill="#FFFFFF" d="M811.541,192.363c-0.332,1.719-0.643,3.44-0.959,5.163l-0.139,0.725l-0.73-0.1
	c-1.731-0.247-3.463-0.533-5.196-0.829c-3.185,17.506-6.221,35.029-9.315,52.546l-0.133,0.754l-0.755-0.123
	c-1.458-0.241-2.924-0.485-4.394-0.705l-0.795-0.12l0.149-0.79c0.332-1.708,0.62-3.421,0.885-5.129
	c-5.935-1.098-11.879-2.177-17.84-3.126c-1.036,5.922-2.099,11.838-3.131,17.76c1.716,0.337,3.445,0.725,5.211,0.909l0.967,0.102
	l-0.309,0.92c-0.552,1.666-0.69,3.425-0.986,5.14c1.63,0.376,3.282,0.685,4.944,0.979l0.706,0.125l-0.067,0.717
	c-0.37,3.709-1.153,7.359-1.741,11.048c1.695,0.37,3.41,0.702,5.123,1.021l0.743,0.141l-0.122,0.746
	c-0.62,3.677-1.274,7.346-1.865,11.027c1.719,0.33,3.44,0.725,5.198,0.926l0.888,0.106l-0.22,0.857
	c-0.938,3.619-1.338,7.364-2.015,11.04c1.672,0.328,3.346,0.648,5.025,0.954l0.754,0.134l-0.123,0.755
	c-0.927,5.682-1.963,11.35-2.886,17.036c9.763,1.866,19.556,3.607,29.349,5.323c10.027,1.751,20.034,3.602,30.102,5.129
	c0.836-5.684,2.34-11.245,3.104-16.937l0.114-0.817l0.808,0.162c1.675,0.345,3.365,0.608,5.046,0.851
	c1.054-5.613,2.054-11.244,3.053-16.869l0.123-0.695l0.698,0.053c1.738,0.139,3.464,0.431,5.191,0.748
	c1.153-6.291,2.146-12.608,3.447-18.875l0.003-0.019l0.004-0.02c1.124-7.604,2.608-15.152,3.852-22.739
	c-1.699-0.286-3.391-0.603-5.071-0.924l-0.733-0.14l0.11-0.736c0.261-1.677,0.534-3.36,0.857-5.036
	c-1.732-0.357-3.474-0.608-5.184-1.012l-0.661-0.156l0.07-0.677c0.184-1.758,0.554-3.5,0.84-5.264
	c-3.691-0.666-7.387-1.286-11.063-1.989l-0.743-0.142l0.121-0.746c0.266-1.672,0.54-3.344,0.855-5.016
	c-5.613-1.298-11.328-2.106-16.985-3.171l-0.725-0.138l0.099-0.722c0.226-1.73,0.497-3.458,0.808-5.19
	c-3.684-0.668-7.372-1.288-11.041-2.016l-0.73-0.148l0.12-0.736c1.272-7.641,2.66-15.263,3.979-22.896
	c-0.981-0.183-1.964-0.363-2.945-0.539c-0.733-0.129-1.464-0.255-2.197-0.378l-0.784-0.128l0.147-0.78
	c0.335-1.747,0.642-3.497,0.781-5.264C819.331,193.748,815.434,193.072,811.541,192.363L811.541,192.363z"/>
<path id="path3016_1_" fill="#1D1D1D" d="M811.536,192.359c3.895,0.711,7.794,1.391,11.692,2.066
	c-0.157,1.986-0.513,3.951-0.896,5.903c-3.969-0.661-7.919-1.408-11.891-2.058C810.807,196.301,811.159,194.328,811.536,192.359z"/>
<path id="path3018_1_" fill="#1D1D1D" d="M804.515,197.32c1.972,0.336,3.944,0.688,5.928,0.951
	c-3.838,21.793-7.646,43.592-11.512,65.382c-1.993-0.304-3.979-0.654-5.955-1.046c0.305-1.958,0.649-3.913,1.021-5.862
	c-1.96-0.424-3.937-0.762-5.91-1.102c0.286-2.004,0.623-4.003,1.051-5.981c1.982,0.274,3.952,0.646,5.931,0.963
	C798.209,232.856,801.284,215.077,804.515,197.32L804.515,197.32z"/>
<path id="path3020_1_" fill="#1D1D1D" d="M822.332,200.47c1.971,0.32,3.935,0.678,5.897,1.044
	c-1.363,7.884-2.806,15.758-4.111,23.65c3.913,0.797,7.854,1.433,11.784,2.146c-0.352,1.965-0.693,3.933-0.926,5.918
	c5.899,1.139,11.869,1.947,17.729,3.303c-0.362,1.916-0.689,3.838-0.986,5.765c3.927,0.768,7.878,1.417,11.819,2.128
	c-0.322,1.979-0.797,3.941-0.935,5.944c1.928,0.517,3.913,0.761,5.864,1.163c-0.37,1.92-0.694,3.846-0.983,5.779
	c1.933,0.376,3.874,0.732,5.822,1.062c-1.244,7.595-2.729,15.145-3.854,22.755c-1.302,6.272-2.301,12.6-3.455,18.896
	c-1.95-0.358-3.904-0.711-5.886-0.813c-1.041,5.858-2.078,11.722-3.176,17.57c-1.957-0.283-3.92-0.563-5.846-1
	c0.83-6.002,1.985-11.954,3.095-17.911c1.955,0.365,3.917,0.711,5.882,1.041c2.447-13.855,4.901-27.706,7.352-41.563
	c-1.953-0.371-3.912-0.713-5.874-1.036c0.229-1.945,0.696-3.863,0.88-5.815c-1.878-0.717-3.902-0.838-5.863-1.19
	c-1.09,5.936-2.027,11.899-3.194,17.824c-1.941-0.337-3.883-0.679-5.823-1.018c1.266-7.951,2.801-15.856,4.148-23.794
	c-3.97-0.723-7.945-1.412-11.918-2.102c-1.048,5.94-2.033,11.891-3.148,17.814c-1.977-0.305-3.942-0.651-5.902-1.037
	c1.358-7.927,2.748-15.853,4.24-23.758c-3.974-0.721-7.946-1.424-11.933-2.08c-1.438,7.906-2.761,15.832-4.187,23.74
	c-2-0.295-3.992-0.642-5.971-1.049C816.01,236.055,819.16,218.261,822.332,200.47L822.332,200.47z"/>
<path id="path3026_1_" fill="#1D1D1D" d="M772.322,240.627c5.96,0.95,11.902,2.028,17.837,3.127
	c-0.305,1.977-0.616,3.947-1.021,5.908c-3.96-0.604-7.892-1.369-11.836-2.032c-0.836,3.899-1.176,7.897-2.135,11.77
	c-2.024-0.12-3.998-0.625-5.981-1.015C770.22,252.462,771.285,246.55,772.322,240.627z"/>
<path id="path3030_1_" fill="#1D1D1D" d="M775.304,259.563c1.961,0.042,3.88,0.495,5.795,0.887c-0.308,1.99-0.653,3.975-1.022,5.957
	c1.982,0.361,3.965,0.706,5.945,1.084c-0.651,3.958-1.394,7.9-2.067,11.856c1.961,0.334,3.922,0.683,5.879,1.057
	c-0.726,3.957-1.146,7.999-2.246,11.871c-1.964-0.165-3.874-0.644-5.796-1.014c0.63-3.927,1.327-7.843,1.983-11.766
	c-1.961-0.357-3.916-0.737-5.864-1.163c0.624-3.913,1.504-7.788,1.834-11.741c-1.898-0.327-3.794-0.695-5.669-1.129
	C774.416,263.482,774.511,261.43,775.304,259.563L775.304,259.563z"/>
<path id="path3038_1_" fill="#1D1D1D" d="M787.853,292.35c1.966,0.188,3.9,0.624,5.846,0.979c-0.643,3.953-1.387,7.888-2.07,11.829
	c1.98,0.341,3.963,0.691,5.933,1.109c-0.657,3.95-1.426,7.884-2.063,11.839c15.801,2.824,31.61,5.604,47.418,8.384
	c0.758-3.937,1.377-7.896,2.116-11.841c2.026,0.33,4.055,0.66,6.059,1.132c-0.723,5.973-2.348,11.792-3.224,17.744
	c-10.066-1.526-20.076-3.381-30.103-5.133c-9.794-1.716-19.583-3.453-29.346-5.321c0.964-5.935,2.05-11.848,3.006-17.779
	c-1.931-0.345-3.857-0.716-5.782-1.095C786.369,300.248,786.755,296.209,787.853,292.35L787.853,292.35z"/>
</svg>
