<?xml version="1.0" encoding="utf-8"?>
<!-- Generator: Adobe Illustrator 15.0.0, SVG Export Plug-In  -->
<!DOCTYPE svg PUBLIC "-//W3C//DTD SVG 1.1//EN" "http://www.w3.org/Graphics/SVG/1.1/DTD/svg11.dtd" [
	<!ENTITY ns_flows "http://ns.adobe.com/Flows/1.0/">
]>
<svg version="1.1"
	 xmlns="http://www.w3.org/2000/svg" xmlns:xlink="http://www.w3.org/1999/xlink" xmlns:a="http://ns.adobe.com/AdobeSVGViewerExtensions/3.0/"
	 x="0px" y="0px" width="1000px" height="88px" viewBox="0 0 1000 88" enable-background="new 0 0 1000 88" xml:space="preserve">
<defs>
</defs>
<rect fill="#1D9CCB" width="1000" height="88"/>
<rect x="428.5" y="18.5" fill="none" stroke="#FFFFFF" stroke-width="3" stroke-miterlimit="10" width="143" height="54"/>
<text transform="matrix(1 0 0 1 460.1128 55.5938)" display="none" fill="#FFFFFF" font-family="'Roboto-Black'" font-size="30">DEMO</text>
<path fill="#FFFFFF" d="M461.724,55.594V34.266h6.87c1.885,0,3.579,0.428,5.083,1.282s2.678,2.061,3.523,3.618
	s1.272,3.303,1.282,5.236v0.982c0,1.953-0.413,3.703-1.238,5.251s-1.987,2.759-3.486,3.633s-3.171,1.315-5.017,1.325H461.724z
	 M466.866,38.236v13.402h1.787c1.475,0,2.607-0.524,3.398-1.574s1.187-2.609,1.187-4.68v-0.924c0-2.061-0.396-3.613-1.187-4.658
	s-1.943-1.566-3.457-1.566H466.866z"/>
<path fill="#FFFFFF" d="M494.346,46.541h-8.086v5.098h9.551v3.955h-14.692V34.266h14.722v3.971h-9.58v4.496h8.086V46.541z"/>
<path fill="#FFFFFF" d="M504.658,34.266l4.762,14.84l4.746-14.84h6.768v21.328h-5.156v-4.98l0.498-10.195l-5.156,15.176h-3.398
	l-5.172-15.189l0.498,10.209v4.98h-5.141V34.266H504.658z"/>
<path fill="#FFFFFF" d="M542.262,45.369c0,2.08-0.387,3.922-1.158,5.523s-1.867,2.834-3.288,3.698s-3.04,1.296-4.856,1.296
	s-3.428-0.417-4.834-1.252s-2.502-2.029-3.288-3.582s-1.198-3.334-1.237-5.346v-1.201c0-2.09,0.383-3.934,1.149-5.53
	s1.865-2.829,3.296-3.698s3.059-1.305,4.885-1.305c1.807,0,3.418,0.43,4.834,1.289s2.518,2.083,3.304,3.67s1.185,3.406,1.194,5.457
	V45.369z M537.031,44.477c0-2.119-0.354-3.729-1.062-4.827s-1.722-1.647-3.04-1.647c-2.578,0-3.939,1.934-4.086,5.801l-0.016,1.566
	c0,2.09,0.348,3.697,1.041,4.82s1.723,1.684,3.09,1.684c1.299,0,2.301-0.551,3.004-1.654s1.059-2.691,1.068-4.762V44.477z"/>
</svg>
